<svg width="800" height="800" viewBox="0 0 24 24" fill="none" xmlns="http://www.w3.org/2000/svg"><path fill="#fff" d="M0 0h24v24H0z"/><path fill-rule="evenodd" clip-rule="evenodd" d="M7.25 2.388C8.55 2.099 10.124 2 12 2s3.451.1 4.75.388c1.31.291 2.399.788 3.236 1.626.838.837 1.335 1.926 1.626 3.236C21.901 8.55 22 10.124 22 12s-.1 3.451-.388 4.75c-.291 1.31-.788 2.399-1.626 3.236-.837.838-1.926 1.335-3.236 1.626-1.299.289-2.874.388-4.75.388s-3.451-.1-4.75-.388c-1.31-.291-2.399-.788-3.236-1.626-.838-.837-1.335-1.926-1.626-3.236C2.099 15.45 2 13.876 2 12s.1-3.451.388-4.75c.291-1.31.788-2.399 1.626-3.236.837-.838 1.926-1.335 3.236-1.626ZM9 11.5a2.5 2.5 0 1 1 5 0 2.5 2.5 0 0 1-5 0ZM11.5 7a4.5 4.5 0 1 0 2.396 8.31l1.397 1.397a1 1 0 0 0 1.414-1.414l-1.397-1.397A4.5 4.5 0 0 0 11.5 7Z" fill="#8762e3"/></svg>